<svg xmlns="http://www.w3.org/2000/svg"
    viewBox="0 0 320 320"
    role="img"
    aria-label="The Budget Project symbol">
    <title>The Budget Project — Symbol</title>

    <!-- Shield (trust/safety) -->
    <path d="M160 12
           C210 42, 258 56, 308 60
           V164
           C308 248, 242 302, 160 314
           C78 302, 12 248, 12 164
           V60
           C62 56, 110 42, 160 12 Z"
        fill="#0B1F2A"/>

    <!-- Inner panel -->
    <path d="M160 38
           C198 62, 232 74, 272 78
           V162
           C272 224, 225 264, 160 288
           C95 264, 48 224, 48 162
           V78
           C88 74, 122 62, 160 38 Z"
        fill="#0F2F3D"/>

    <!-- House -->
    <path d="M96 150 L160 96 L224 150"
        fill="none"
        stroke="#E7EEF2"
        stroke-width="14"
        stroke-linecap="round"
        stroke-linejoin="round"/>
    <rect x="116"
        y="150"
        width="88"
        height="78"
        rx="12"
        fill="none"
        stroke="#E7EEF2"
        stroke-width="14"/>

    <!-- Budget line -->
    <path d="M132 212
           C148 192, 160 206, 174 184
           S206 176, 214 162"
        fill="none"
        stroke="#7FD1AE"
        stroke-width="12"
        stroke-linecap="round"/>

    <!-- Dots -->
    <circle cx="132"
        cy="212"
        r="7"
        fill="#7FD1AE"/>
    <circle cx="174"
        cy="184"
        r="7"
        fill="#7FD1AE"/>
    <circle cx="214"
        cy="162"
        r="7"
        fill="#7FD1AE"/>
</svg>